HIERARCHY
ROOT Hips
{
	OFFSET	0.00	0.00	0.00
	CHANNELS 6 Xposition Yposition Zposition Zrotation Xrotation Yrotation
	JOINT LeftUpLeg
	{
		OFFSET	 0.126116	-0.014019	-0.065224
		CHANNELS 3 Zrotation Xrotation Yrotation
		JOINT LeftLeg
		{
			OFFSET	 0.000000	 0.000000	 0.569914
			CHANNELS 3 Zrotation Xrotation Yrotation
			JOINT LeftFoot
			{
				OFFSET	 0.000000	 0.000000	 0.544423
				CHANNELS 3 Zrotation Xrotation Yrotation
				JOINT LeftToeBase
				{
					OFFSET	 0.000000	 0.000000	 0.207117
					CHANNELS 3 Zrotation Xrotation Yrotation
					End Site
					{
						OFFSET	 0.000000	 0.000000	 0.207117
					}
				}
			}
		}
	}
	JOINT RightUpLeg
	{
		OFFSET	-0.124023	-0.008373	-0.065224
		CHANNELS 3 Zrotation Xrotation Yrotation
		JOINT RightLeg
		{
			OFFSET	 0.000000	 0.000000	 0.570047
			CHANNELS 3 Zrotation Xrotation Yrotation
			JOINT RightFoot
			{
				OFFSET	 0.000000	 0.000000	 0.544354
				CHANNELS 3 Zrotation Xrotation Yrotation
				JOINT RightToeBase
				{
					OFFSET	 0.000000	 0.000000	 0.207540
					CHANNELS 3 Zrotation Xrotation Yrotation
					End Site
					{
						OFFSET	 0.000000	 0.000000	 0.207540
					}
				}
			}
		}
	}
	JOINT Spine
	{
		OFFSET	 0.000184	-0.007763	 0.117403
		CHANNELS 3 Zrotation Xrotation Yrotation
		JOINT Spine1
		{
			OFFSET	 0.000000	 0.000000	 0.137269
			CHANNELS 3 Zrotation Xrotation Yrotation
			JOINT Spine2
			{
				OFFSET	 0.000000	 0.000000	 0.156879
				CHANNELS 3 Zrotation Xrotation Yrotation
				JOINT LeftShoulder
				{
					OFFSET	 0.080501	-0.002496	 0.160144
					CHANNELS 3 Zrotation Xrotation Yrotation
					JOINT LeftArm
					{
						OFFSET	 0.000000	 0.000000	 0.164363
						CHANNELS 3 Zrotation Xrotation Yrotation
						JOINT LeftForeArm
						{
							OFFSET	 0.000000	 0.000000	 0.364576
							CHANNELS 3 Zrotation Xrotation Yrotation
							JOINT LeftHand
							{
								OFFSET	 0.000000	 0.000000	 0.360812
								CHANNELS 3 Zrotation Xrotation Yrotation
								JOINT LeftHandIndex1
								{
									OFFSET	 0.000000	 0.000000	 0.086006
									CHANNELS 3 Zrotation Xrotation Yrotation
									JOINT LeftHandIndex2
									{
										OFFSET	 0.000000	 0.000000	 0.047236
										CHANNELS 3 Zrotation Xrotation Yrotation
										JOINT LeftHandIndex3
										{
											OFFSET	-0.004284	-0.000551	 0.038166
											CHANNELS 3 Zrotation Xrotation Yrotation
											End Site
											{
												OFFSET	-0.004284	-0.000551	 0.038166
											}
										}
									}
								}
							}
						}
					}
				}
				JOINT Neck
				{
					OFFSET	 0.000000	 0.000000	 0.176489
					CHANNELS 3 Zrotation Xrotation Yrotation
					JOINT Head
					{
						OFFSET	 0.000000	-0.001747	 0.077940
						CHANNELS 3 Zrotation Xrotation Yrotation
						End Site
						{
							OFFSET	 0.000000	-0.001747	 0.077940
						}
					}
				}
				JOINT RightShoulder
				{
					OFFSET	-0.080363	 0.000306	 0.159706
					CHANNELS 3 Zrotation Xrotation Yrotation
					JOINT RightArm
					{
						OFFSET	 0.000000	 0.000000	 0.164196
						CHANNELS 3 Zrotation Xrotation Yrotation
						JOINT RightForeArm
						{
							OFFSET	 0.000000	 0.000000	 0.365611
							CHANNELS 3 Zrotation Xrotation Yrotation
							JOINT RightHand
							{
								OFFSET	 0.000000	 0.000000	 0.360648
								CHANNELS 3 Zrotation Xrotation Yrotation
								JOINT RightHandIndex1
								{
									OFFSET	 0.000000	 0.000000	 0.069977
									CHANNELS 3 Zrotation Xrotation Yrotation
									JOINT RightHandIndex2
									{
										OFFSET	 0.000000	 0.000000	 0.052305
										CHANNELS 3 Zrotation Xrotation Yrotation
										JOINT RightHandIndex3
										{
											OFFSET	 0.009002	-0.000782	 0.042196
											CHANNELS 3 Zrotation Xrotation Yrotation
											End Site
											{
												OFFSET	 0.009002	-0.000782	 0.042196
											}
										}
									}
								}
							}
						}
					}
				}
			}
		}
	}
}
MOTION
Frames:    8
Frame Time: 0.03333334
-0.000428	 0.045007	 1.280232	-0.013883	 3.573030	 0.539516	-11.876150	-5.758747	 179.408500	 2.142027	-10.944660	 0.486080	-0.264546	 69.959840	 0.222144	-2.385833	 28.452750	 0.000004	 19.211550	-4.874613	-179.375600	-0.809993	-8.511327	 0.642994	 5.068379	 68.413530	 1.231464	 2.384659	 28.388700	-0.000001	-3.126810	 7.626168	 1.004069	-1.651250	-8.374044	-0.502461	 5.080477	 11.673920	-0.407603	-90.955380	 68.333440	-177.365700	-7.005133	-0.100843	-3.255756	 22.858350	-8.541109	-34.154000	-7.858654	-29.980250	-5.240710	-2.027600	 6.559038	 9.033609	-5.188889	 0.308190	 3.541030	-5.234859	 0.342567	 0.430617	 4.705987	 21.786750	-7.922667	 0.326588	-15.769090	 2.117844	 88.686870	 66.430840	 176.757100	 8.928540	 4.619199	 6.427538	-25.722630	-10.357460	 28.855010	 4.933454	-29.147100	 6.133009	 1.803333	 3.979147	-15.098590	 4.898592	 3.004813	-9.310344	 5.224449	 0.395017	 2.014677
-0.000956	 0.047676	 1.282095	 0.067241	 4.524933	 0.575406	-12.051150	-6.354779	 179.086500	 2.133553	-9.846554	 0.438605	-1.034029	 69.219930	 1.051267	-2.385833	 28.452750	 0.000004	 19.103440	-5.005917	-178.975500	-0.828135	-6.507068	 0.490276	 5.266829	 67.092760	 0.988553	 2.384659	 28.388700	-0.000001	-3.045186	 8.117136	 1.109391	-1.751800	-10.760210	-0.761232	 5.084239	 14.171700	-0.479751	-90.830620	 67.477310	-177.129400	-6.687301	-0.378409	-4.139771	 22.266130	-8.378572	-34.998950	-6.878911	-32.143740	-6.019322	-2.027600	 6.559038	 9.033609	-5.188889	 0.308190	 3.541030	-5.234859	 0.342567	 0.430617	 4.762784	 24.405580	-8.675920	 0.745200	-17.753470	 2.204439	 88.445560	 64.776560	 176.371600	 8.456323	 3.507916	 7.698995	-25.557790	-10.444690	 29.295270	 3.173262	-30.600240	 5.793820	 1.803333	 3.979147	-15.098590	 4.898592	 3.004813	-9.310344	 5.224449	 0.395017	 2.014677
-0.001903	 0.055400	 1.285811	 0.322819	 7.102242	 0.707622	-12.483010	-8.044814	 178.168800	 2.061604	-6.979796	 0.301327	-2.861982	 67.246570	 3.138536	-2.385832	 28.452790	-0.000001	 18.539170	-5.122600	-177.915900	-1.435447	-0.513314	 0.033290	 6.297602	 63.470390	 0.438163	 2.384659	 28.388700	-0.000001	-2.745839	 8.526550	 1.139116	-2.027295	-16.114490	-1.202405	 4.761996	 18.682790	-0.650509	-91.016370	 65.341350	-177.948100	-5.183579	-0.363604	-3.794955	 19.595940	-6.991094	-37.274780	-7.656647	-36.292540	-8.702172	-2.027600	 6.559038	 9.033609	-5.188889	 0.308190	 3.541030	-5.234859	 0.342567	 0.430617	 4.116701	 26.674620	-8.813032	 1.212590	-19.783450	 1.995663	 88.544430	 61.611710	 177.053800	 5.979103	 1.991115	 7.980522	-24.169670	-10.086920	 30.565270	 0.563555	-33.490260	 6.328279	 1.803333	 3.979147	-15.098590	 4.898592	 3.004813	-9.310344	 5.224449	 0.395017	 2.014677
-0.002194	 0.065577	 1.286861	 0.728568	 10.104020	 0.697205	-13.095890	-11.494490	 177.211600	 1.957640	-6.452740	 0.266969	-4.636260	 66.049490	 5.251217	-2.385833	 28.452760	 0.000004	 17.994490	-8.663747	-176.823800	-1.719225	-0.510407	 0.030564	 8.397099	 62.822350	-1.629744	 2.384659	 28.388700	-0.000001	-2.552252	 7.746801	 1.086787	-2.245825	-20.629320	-1.516737	 4.330281	 21.703320	-0.485721	-92.014100	 64.886040	 179.371000	-3.182125	 2.625139	-0.374337	 18.504230	-6.657996	-39.543010	-8.597178	-39.506940	-10.961990	-2.027600	 6.559038	 9.033609	-5.188889	 0.308190	 3.541030	-5.234859	 0.342567	 0.430617	 3.426589	 26.339150	-8.840846	 1.432767	-20.244320	 1.819954	 89.488130	 60.618640	 179.323700	 2.594721	 4.217632	 5.316483	-23.031890	-9.791860	 31.726880	-0.994971	-36.644000	 6.910883	 1.803333	 3.979147	-15.098590	 4.898592	 3.004813	-9.310344	 5.224449	 0.395017	 2.014677
-0.003122	 0.080307	 1.286719	 1.589688	 14.391230	 0.705793	-14.313930	-17.231620	 175.599700	 2.377187	-7.356930	 0.358014	-7.570623	 65.311490	 8.140382	-2.385832	 28.452790	-0.000001	 17.008060	-13.790130	-175.490100	-1.653001	-0.513151	 0.031324	 10.198500	 61.621920	-3.814188	 2.384659	 28.388700	-0.000001	-2.512434	 5.935711	 0.995408	-2.634670	-23.498720	-1.847252	 3.751502	 22.888480	-0.221701	-93.138560	 65.232300	 176.340800	-0.560266	 7.355387	 3.264280	 18.433180	-7.217283	-42.073350	-8.725552	-42.543680	-12.307120	-2.027600	 6.559038	 9.033609	-5.188889	 0.308190	 3.541030	-5.234859	 0.342567	 0.430617	 2.858417	 24.744490	-8.749097	 1.457405	-20.082820	 1.501549	 90.687290	 60.416980	-177.931600	-0.950977	 8.342277	 2.448021	-21.507150	-9.253825	 33.102920	-1.264716	-40.119460	 7.783005	 1.803333	 3.979147	-15.098590	 4.898592	 3.004813	-9.310344	 5.224449	 0.395017	 2.014677
-0.005053	 0.100196	 1.286234	 3.339100	 19.760530	 0.539131	-16.564260	-23.185160	 173.226700	 3.255014	-5.747684	 0.368199	-10.631480	 62.017090	 10.808740	-2.385833	 28.452760	 0.000004	 15.142410	-20.369040	-174.141100	-1.798146	-0.512573	 0.029987	 11.685800	 59.030340	-5.586131	 2.384659	 28.388700	-0.000001	-2.746293	 4.193412	 0.877931	-3.400671	-24.669000	-1.915962	 3.056338	 22.475140	-0.496292	-94.040180	 65.770710	 173.758100	 3.654361	 13.537390	 4.247032	 18.336080	-7.743546	-44.430690	-9.160037	-45.624310	-13.653280	-2.027600	 6.559038	 9.033609	-5.188889	 0.308190	 3.541030	-5.234859	 0.342567	 0.430617	 2.386172	 23.977820	-7.516616	 1.232645	-20.617920	 0.850560	 91.819340	 61.167060	-175.227400	-4.561631	 14.240990	 1.798400	-20.602950	-8.882456	 33.877830	-0.935429	-43.315460	 9.003281	 1.803333	 3.979147	-15.098590	 4.898592	 3.004813	-9.310344	 5.224449	 0.395017	 2.014677
-0.007504	 0.117674	 1.282413	 4.337039	 22.681680	 0.174754	-18.092690	-28.858300	 171.715100	 3.561263	-9.246965	 0.640194	-12.983510	 63.136630	 13.189720	-2.385833	 28.452750	 0.000004	 14.401840	-26.917470	-173.371200	-2.056254	-6.059663	 0.326512	 14.449460	 61.097530	-8.618105	 2.384659	 28.388700	-0.000001	-2.644908	 5.754289	 1.012220	-3.700440	-24.011970	-1.372702	 2.816508	 22.348380	-1.092118	-94.511630	 67.523470	 171.683500	 8.203653	 19.726710	-0.621306	 18.698370	-8.078920	-44.324260	-10.056120	-49.296120	-15.108800	-2.027600	 6.559038	 9.033609	-5.188889	 0.308190	 3.541030	-5.234859	 0.342567	 0.430617	 1.762637	 23.043760	-6.329192	 1.040342	-21.201370	 0.203467	 92.599820	 62.206670	-173.149200	-7.173725	 20.284050	 5.579726	-20.162210	-8.490596	 33.640250	 1.141283	-46.970810	 10.856230	 1.803333	 3.979147	-15.098590	 4.898592	 3.004813	-9.310344	 5.224449	 0.395017	 2.014677
-0.009562	 0.133602	 1.276938	 3.698781	 24.760050	-0.000923	-17.946330	-34.493420	 170.960000	 3.646989	-15.419620	 1.082124	-15.210740	 65.595340	 15.787870	-2.385833	 28.452750	 0.000004	 15.774320	-33.458120	-172.195300	-2.547407	-14.437630	 0.648382	 19.143110	 64.584810	-13.426710	 2.384659	 28.388700	-0.000001	-2.190792	 9.436787	 1.105161	-2.930088	-21.004460	-0.049730	 2.987498	 21.557270	-1.494375	-94.486850	 70.346570	 169.829100	 11.918930	 23.255500	-8.775003	 18.577660	-8.084334	-44.774540	-12.387090	-53.881060	-17.076470	-2.027600	 6.559038	 9.033609	-5.188889	 0.308190	 3.541030	-5.234859	 0.342567	 0.430617	 1.095652	 21.519340	-5.974098	 1.051970	-21.390150	 0.038135	 93.070280	 64.248070	-171.303400	-10.168550	 25.945260	 13.518520	-19.301770	-8.035837	 34.137320	 5.528269	-51.373350	 13.800410	 1.803333	 3.979147	-15.098590	 4.898592	 3.004813	-9.310344	 5.224449	 0.395017	 2.014677
